<svg width="42" height="42" viewBox="0 0 42 42" fill="none" xmlns="http://www.w3.org/2000/svg">
<circle cx="21" cy="21" r="20" stroke="#FFF8F2" stroke-width="2"/>
<g clip-path="url(#clip0_1639_557)">
<path d="M24.1688 15.375C25.0234 15.5417 25.8088 15.9597 26.4246 16.5754C27.0403 17.1912 27.4583 17.9766 27.625 18.8312M24.1688 11.875C25.9444 12.0723 27.6001 12.8674 28.8642 14.1299C30.1283 15.3924 30.9255 17.0471 31.125 18.8225M30.25 25.805V28.43C30.251 28.6737 30.2011 28.9149 30.1034 29.1382C30.0058 29.3615 29.8626 29.5619 29.6831 29.7266C29.5035 29.8914 29.2915 30.0168 29.0607 30.0949C28.8298 30.1729 28.5852 30.2019 28.3425 30.18C25.65 29.8874 23.0636 28.9674 20.7913 27.4938C18.6771 26.1503 16.8847 24.3579 15.5413 22.2438C14.0625 19.9611 13.1422 17.3621 12.855 14.6575C12.8331 14.4155 12.8619 14.1717 12.9394 13.9414C13.017 13.7112 13.1416 13.4996 13.3054 13.3202C13.4692 13.1407 13.6686 12.9974 13.8908 12.8992C14.1131 12.801 14.3533 12.7502 14.5963 12.75H17.2213C17.6459 12.7458 18.0576 12.8962 18.3795 13.1731C18.7015 13.45 18.9118 13.8345 18.9713 14.255C19.082 15.0951 19.2875 15.9199 19.5838 16.7138C19.7015 17.0269 19.727 17.3673 19.6572 17.6945C19.5874 18.0217 19.4253 18.3221 19.19 18.56L18.0788 19.6712C19.3244 21.8619 21.1381 23.6756 23.3288 24.9212L24.44 23.81C24.6779 23.5747 24.9783 23.4126 25.3055 23.3428C25.6327 23.273 25.9731 23.2985 26.2863 23.4162C27.0801 23.7125 27.9049 23.918 28.745 24.0288C29.17 24.0887 29.5582 24.3028 29.8357 24.6303C30.1132 24.9578 30.2606 25.3759 30.25 25.805Z" stroke="#FFF8F2" stroke-width="2" stroke-linecap="round" stroke-linejoin="round"/>
</g>
<defs>
<clipPath id="clip0_1639_557">
<rect width="21" height="21" fill="white" transform="translate(11 11)"/>
</clipPath>
</defs>
</svg>
