<svg width="80" height="80" viewBox="0 0 80 80" fill="none" xmlns="http://www.w3.org/2000/svg">
<path d="M79.8787 24.3821C78.7263 28.2032 77.5132 32.0242 76.4215 35.8453C73.9954 44.2759 71.5693 52.7066 69.1433 61.2585C68.4761 61.2585 67.8696 61.2585 67.2631 61.2585C53.7983 61.2585 40.3942 61.2585 26.9295 61.2585C26.3836 61.2585 25.8984 61.1978 25.3525 61.3191C24.2001 61.5617 23.533 62.2896 23.4723 63.5026C23.4117 64.7763 24.0788 65.5648 25.2919 65.868C25.8377 65.9893 26.4443 65.9287 26.9901 65.9287C38.9992 65.9287 51.069 65.9287 63.0781 65.9287C68.4154 65.9287 71.812 71.1447 69.6285 75.8756C68.2335 78.9688 64.837 80.6065 61.6224 79.7573C58.2259 78.9082 56.0424 75.9363 56.285 72.4791C56.3457 71.9332 56.4063 71.3267 56.467 70.7202C51.6148 70.7202 46.8233 70.7202 41.9712 70.7202C42.2744 76.6034 39.7271 79.9999 35.1175 79.9999C30.5079 79.9999 27.8999 76.5428 28.2638 70.5989C23.8969 70.9021 20.1971 69.9317 18.9234 65.1402C18.0743 61.9863 19.4693 59.3783 22.8658 57.0735C21.956 53.4344 21.0462 49.674 20.1365 45.9742C18.1349 37.9075 16.1941 29.8408 14.1926 21.7741C13.6467 19.4693 13.1008 19.1054 10.7354 19.1054C9.82562 19.1054 8.85519 19.166 7.94541 19.1054C6.1865 18.9234 4.85216 19.4086 4.42759 21.3495C2.91129 21.3495 1.45565 21.3495 0.0606498 21.3495C-0.363914 18.0136 2.66869 14.6171 6.36846 14.3745C8.36997 14.2532 10.3108 14.2532 12.3124 14.3745C15.2843 14.5565 17.771 16.6793 18.5595 19.6512C18.9234 20.9249 19.2267 22.2593 19.5906 23.7149C39.7271 23.7149 59.8029 23.7149 79.8787 23.7149C79.8787 23.9575 79.8787 24.1395 79.8787 24.3821ZM20.743 28.5064C20.8036 28.931 20.8643 29.2342 20.9249 29.5375C23.0478 38.0894 25.1706 46.5807 27.1721 55.1326C27.4147 56.2244 27.8393 56.6489 28.9916 56.5883C40.6368 56.5276 52.3427 56.5276 63.9878 56.5883C65.2615 56.5883 65.6861 56.1637 65.9894 55.0113C67.9909 47.915 69.9924 40.8188 72.0546 33.7225C72.5398 32.0242 73.025 30.2653 73.5709 28.4458C55.9211 28.5064 38.4534 28.5064 20.743 28.5064ZM35.1782 75.3297C36.4518 75.3297 37.4829 74.238 37.4223 72.9037C37.3616 71.63 36.3305 70.6595 35.1175 70.6595C33.7832 70.6595 32.8127 71.7513 32.8734 73.0856C32.934 74.3593 33.9651 75.3297 35.1782 75.3297ZM63.26 75.3297C64.4731 75.3297 65.5041 74.2986 65.5648 73.0856C65.6255 71.7513 64.5944 70.6595 63.26 70.6595C61.9863 70.6595 61.0159 71.63 60.9552 72.9037C60.9552 74.238 61.9863 75.3297 63.26 75.3297Z" fill="#873900"/>
<path d="M49.2494 0C49.2494 3.0326 49.2494 6.12585 49.2494 9.27975C47.6725 9.27975 46.2168 9.27975 44.5792 9.27975C44.5792 6.1865 44.5792 3.09325 44.5792 0C46.0955 0 47.6725 0 49.2494 0Z" fill="#873900"/>
<path d="M36.6339 12.7369C35.7241 13.6467 34.693 14.6171 33.8439 15.5269C31.6604 13.3434 29.5376 11.2206 27.3541 9.03715C28.2033 8.24867 29.295 7.21759 30.2654 6.30781C32.2669 8.30932 34.3898 10.4928 36.6339 12.7369Z" fill="#873900"/>
<path d="M63.6241 6.12585C64.5338 7.03563 65.5043 8.12736 66.4747 9.15844C64.4125 11.2813 62.2291 13.4041 60.1062 15.5269C59.1358 14.5565 58.1047 13.5254 57.1343 12.555C59.2571 10.4928 61.4406 8.30932 63.6241 6.12585Z" fill="#873900"/>
</svg>
