<svg width="21" height="20" viewBox="0 0 21 20" fill="none" xmlns="http://www.w3.org/2000/svg">
<path d="M20.0066 2.61617C20.0066 7.53969 20.0066 12.4603 20.0066 17.3838C19.9949 17.4188 19.9774 17.4567 19.9716 17.4916C19.6948 19.024 18.5353 20 16.9796 20C15.3248 20 13.673 20 12.0182 20C11.9483 20 11.8813 20 11.8114 20C11.8114 17.6169 11.8114 15.2629 11.8114 12.8944C12.8135 12.8944 13.807 12.8944 14.8208 12.8944C14.9519 12.1107 15.0801 11.3387 15.2112 10.5462C14.6256 10.5462 14.0692 10.5462 13.5098 10.5462C12.9446 10.5462 12.3824 10.5462 11.8026 10.5462C11.8026 10.4676 11.8026 10.4093 11.8026 10.3511C11.8026 9.66642 11.8026 8.9847 11.8026 8.30007C11.8055 7.52221 12.2921 7.03277 13.0699 7.02986C13.7458 7.02695 14.4246 7.02986 15.1005 7.02986C15.1704 7.02986 15.2374 7.02986 15.3074 7.02986C15.3074 6.23744 15.3074 5.47123 15.3074 4.68463C15.2403 4.68463 15.185 4.68463 15.1267 4.68463C14.2353 4.68463 13.3438 4.68172 12.4523 4.68463C10.7363 4.69046 9.46031 5.96941 9.45739 7.69119C9.45448 8.57101 9.45739 9.44792 9.45739 10.3277C9.45739 10.3977 9.45739 10.4647 9.45739 10.5492C8.66497 10.5492 7.89876 10.5492 7.12382 10.5492C7.12382 11.3328 7.12382 12.1049 7.12382 12.8973C7.90459 12.8973 8.67662 12.8973 9.44574 12.8973C9.44574 15.2746 9.44574 17.6285 9.44574 19.9942C9.40495 19.9971 9.37582 20 9.34377 20C7.18208 20 5.02039 20 2.8587 19.9971C2.46249 19.9971 2.08084 19.9097 1.72833 19.7349C0.592134 19.1755 0.00655499 18.2549 0.00364166 16.9905C-0.002185 12.3292 0.000728332 7.66788 0.000728332 3.00655C0.000728332 2.94246 0.000728332 2.87546 0.00364166 2.81136C0.0852149 1.67225 0.621267 0.824472 1.64093 0.311726C1.94683 0.160233 2.29643 0.101966 2.62272 0C7.54625 0 12.4669 0 17.3904 0C17.4283 0.0116533 17.4632 0.0291333 17.5011 0.0349599C18.5382 0.206846 19.287 0.766205 19.7327 1.71304C19.8638 1.99563 19.9162 2.3161 20.0066 2.61617ZM8.27167 18.8288C8.27167 17.2265 8.27167 15.6504 8.27167 14.0568C7.4909 14.0568 6.72469 14.0568 5.95266 14.0568C5.95266 12.4894 5.95266 10.9395 5.95266 9.36635C6.73634 9.36635 7.50546 9.36635 8.28332 9.36635C8.28332 8.79243 8.28332 8.23889 8.28332 7.68536C8.28332 7.2134 8.3445 6.75018 8.50182 6.30444C9.11653 4.57975 10.6169 3.5193 12.4494 3.51347C13.7312 3.51056 15.0131 3.51347 16.2979 3.51347C16.3532 3.51347 16.4115 3.51347 16.4727 3.51347C16.4727 5.08376 16.4727 6.63656 16.4727 8.20976C15.2986 8.20976 14.1391 8.20976 12.9796 8.20976C12.9796 8.60597 12.9796 8.98179 12.9796 9.37509C14.1857 9.37509 15.3802 9.37509 16.5921 9.37509C16.3299 10.9454 16.0706 12.4953 15.8114 14.0655C14.8616 14.0655 13.9206 14.0655 12.9883 14.0655C12.9883 15.665 12.9883 17.244 12.9883 18.8259C14.3722 18.8259 15.7385 18.8463 17.1049 18.8201C18.1187 18.7997 18.8296 18.0306 18.8296 17.0051C18.8325 12.3379 18.8325 7.66788 18.8296 3.00073C18.8296 1.93445 18.0721 1.17407 17.0117 1.17407C12.3358 1.17116 7.66278 1.17116 2.98689 1.17407C1.93518 1.17407 1.1748 1.93445 1.1748 2.98616C1.17189 7.66205 1.16897 12.335 1.18063 17.0109C1.18063 17.2819 1.24181 17.5761 1.35543 17.8208C1.68172 18.5142 2.26438 18.8288 3.02185 18.8318C4.44647 18.8347 5.874 18.8318 7.29862 18.8318C7.622 18.8288 7.93955 18.8288 8.27167 18.8288Z" fill="#F8F8F8"/>
</svg>
