<svg width="199" height="24" viewBox="0 0 199 24" fill="none" xmlns="http://www.w3.org/2000/svg">
<path d="M11.2906 13.3269V17.4052C11.2906 18.2857 11.3872 18.833 11.5804 19.0469C11.8416 19.3496 12.2371 19.5009 12.767 19.5009H13.308V19.8827H7.30566V19.5009H7.8355C8.4267 19.5009 8.84999 19.3081 9.10537 18.9225C9.24218 18.7103 9.311 18.2045 9.31183 17.4052V8.36061C9.31183 7.48003 9.21855 6.93278 9.03199 6.71886C8.76334 6.41704 8.36451 6.26572 7.8355 6.26489H7.30566V5.88306H12.4374C13.6894 5.88306 14.677 6.01199 15.4 6.26986C16.1191 6.5259 16.752 6.97832 17.2271 7.5758C17.7249 8.19146 17.9892 8.96324 17.9733 9.75485C17.9733 10.8974 17.5965 11.8265 16.8427 12.5421C16.089 13.2577 15.024 13.6155 13.6475 13.6155C13.2816 13.6138 12.9161 13.5897 12.553 13.5433C12.16 13.496 11.7392 13.4239 11.2906 13.3269ZM11.2906 12.7386C11.6563 12.807 11.9797 12.863 12.262 12.8928C12.5016 12.9248 12.7429 12.9422 12.9846 12.9451C13.3349 12.9466 13.6814 12.8732 14.001 12.7299C14.3206 12.5866 14.6059 12.3767 14.8378 12.1142C15.3569 11.5595 15.6164 10.8419 15.6164 9.96131C15.6207 9.3778 15.4932 8.80086 15.2433 8.27354C15.0226 7.78417 14.6542 7.3762 14.1898 7.10691C13.7178 6.84293 13.1846 6.70821 12.6438 6.71637C12.1868 6.73206 11.7329 6.79881 11.2906 6.91537V12.7386Z" fill="#454545"/>
<path d="M23.1333 6.64672V12.1814H26.2104C27.0088 12.1814 27.5424 12.0608 27.8111 11.8195C28.1684 11.5036 28.3678 10.9459 28.4093 10.1466H28.7911V15.0196H28.4093C28.3131 14.3381 28.2169 13.9011 28.1208 13.7087C27.986 13.4574 27.7717 13.2579 27.5113 13.1416C27.2277 13.0039 26.7937 12.9351 26.2091 12.9351H23.1333V17.5494C23.1333 18.1688 23.1611 18.5457 23.2167 18.68C23.2731 18.8167 23.375 18.9296 23.5052 18.9996C23.6437 19.0826 23.9053 19.124 24.29 19.124H26.6643C27.457 19.124 28.0316 19.0689 28.3882 18.9586C28.7797 18.8275 29.1341 18.6044 29.4217 18.3081C29.8479 17.8811 30.2849 17.2377 30.7326 16.3778H31.1456L29.9379 19.8877H19.1533V19.5058H19.6508C19.9787 19.5061 20.3015 19.4244 20.5899 19.2683C20.6938 19.2191 20.7871 19.1499 20.8641 19.0645C20.9412 18.9791 21.0006 18.8793 21.0388 18.7708C21.1184 18.5494 21.1632 18.0992 21.1632 17.4176V8.31956C21.1632 7.43153 21.0737 6.88428 20.8946 6.67781C20.6458 6.40336 20.2312 6.26572 19.6508 6.26489H19.1533V5.88306H29.9366L30.0909 8.95512H29.6879C29.5436 8.21882 29.3836 7.71303 29.2078 7.43774C29.0197 7.15241 28.7476 6.93252 28.4292 6.80841C28.1531 6.70559 27.6676 6.65377 26.9728 6.65294L23.1333 6.64672Z" fill="#454545"/>
<path d="M31.3516 5.88306H35.15L43.7095 16.3828V8.30961C43.7095 7.44894 43.6129 6.90998 43.4197 6.69274C43.1659 6.40336 42.7634 6.25867 42.212 6.25867H41.7269V5.88306H46.5999V6.26489H46.1024C45.5104 6.26489 45.0904 6.44399 44.8425 6.80219C44.6908 7.02275 44.6149 7.52522 44.6149 8.30961V20.1103H44.2418L35.0169 8.83074V17.4512C35.0169 18.3118 35.1098 18.8508 35.2955 19.068C35.5567 19.3574 35.9592 19.5021 36.5032 19.5021H37.0007V19.8839H32.1252V19.5021H32.6102C33.2097 19.5021 33.633 19.323 33.8801 18.9648C34.0318 18.7443 34.1077 18.2418 34.1077 17.4574V7.72132C33.8331 7.37671 33.5234 7.06159 33.1836 6.78104C32.8984 6.59474 32.5869 6.4522 32.2595 6.35817C31.9627 6.28483 31.6571 6.25343 31.3516 6.26489V5.88306Z" fill="#454545"/>
<path d="M46.6211 5.88306H50.4195L58.979 16.3828V8.30961C58.979 7.44894 58.8824 6.90998 58.6892 6.69274C58.4338 6.40336 58.0313 6.25867 57.4815 6.25867H56.9965V5.88306H61.8695V6.26489H61.372C60.7799 6.26489 60.3604 6.44399 60.1133 6.80219C59.9616 7.02275 59.8857 7.52522 59.8857 8.30961V20.1103H59.5126L50.2852 8.83074V17.4512C50.2852 18.3118 50.3785 18.8508 50.565 19.068C50.8262 19.3574 51.2288 19.5021 51.7727 19.5021H52.2702V19.8839H47.3947V19.5021H47.8847C48.4842 19.5021 48.9075 19.323 49.1546 18.9648C49.3063 18.7443 49.3822 18.2418 49.3822 17.4574V7.72132C49.1073 7.37701 48.7976 7.06193 48.4581 6.78104C48.1729 6.59474 47.8614 6.4522 47.534 6.35817C47.2372 6.28483 46.9316 6.25343 46.6261 6.26489L46.6211 5.88306Z" fill="#454545"/>
<path d="M72.2446 5.88306H77.1276V6.26489H76.8639C76.5893 6.2921 76.3227 6.37281 76.0791 6.50244C75.7253 6.66795 75.4062 6.89925 75.1388 7.18402C74.7458 7.63116 74.3967 8.11514 74.0965 8.62926L70.721 13.9463V17.4562C70.721 18.3168 70.8172 18.8558 71.0096 19.073C71.2707 19.3624 71.6853 19.5071 72.2533 19.5071H72.7073V19.8889H66.7522V19.5071H67.2497C67.8409 19.5071 68.2605 19.328 68.5084 18.9698C68.6601 18.7492 68.736 18.2468 68.736 17.4624V14.1428L64.894 8.27852C64.6137 7.82905 64.305 7.39784 63.9699 6.98751C63.8041 6.81587 63.4687 6.60858 62.9637 6.36563C62.774 6.2872 62.5693 6.25194 62.3643 6.2624V5.88306H68.3529V6.26489H68.0432C67.7308 6.26197 67.4231 6.34041 67.1502 6.49249C67.024 6.55497 66.9184 6.65245 66.846 6.77331C66.7737 6.89417 66.7377 7.03329 66.7423 7.17407C66.7423 7.42282 66.952 7.87015 67.3716 8.51608L70.2932 13.0272L73.0394 8.71259C73.4539 8.06501 73.6612 7.58285 73.6612 7.26611C73.6639 7.08305 73.6119 6.90336 73.512 6.74995C73.4057 6.59348 73.2574 6.47018 73.0841 6.39424C72.8165 6.29609 72.5317 6.25376 72.2471 6.26986L72.2446 5.88306Z" fill="#454545"/>
<path d="M86.0886 19.8827L80.6795 8.10315V17.4562C80.6795 18.3168 80.7724 18.8558 80.9581 19.073C81.2135 19.3624 81.6161 19.5071 82.1658 19.5071H82.6633V19.8889H77.7891V19.5071H78.2866C78.8786 19.5071 79.2986 19.328 79.5465 18.9698C79.6974 18.7492 79.7728 18.2468 79.7728 17.4624V8.30961C79.7728 7.69023 79.704 7.24289 79.5664 6.96761C79.4483 6.74834 79.2618 6.57365 79.0353 6.47011C78.7766 6.33578 78.362 6.26862 77.7916 6.26862V5.88306H81.7554L86.8349 16.8368L91.8298 5.88306H95.7936V6.26489H95.3085C94.7107 6.26489 94.2874 6.44399 94.0387 6.80219C93.8869 7.02275 93.8111 7.52522 93.8111 8.30961V17.4562C93.8111 18.3168 93.9077 18.8558 94.1008 19.073C94.3554 19.3624 94.758 19.5071 95.3085 19.5071H95.7936V19.8889H89.8472V19.5071H90.3447C90.9442 19.5071 91.3642 19.328 91.6046 18.9698C91.7564 18.7492 91.8322 18.2468 91.8322 17.4624V8.10315L86.4319 19.8827H86.0886Z" fill="#454545"/>
<path d="M100.657 6.64672V12.1814H103.729C104.527 12.1814 105.061 12.0608 105.328 11.8195C105.687 11.5036 105.886 10.9459 105.928 10.1466H106.31V15.0196H105.928C105.831 14.3381 105.734 13.9011 105.638 13.7087C105.504 13.4575 105.29 13.258 105.03 13.1416C104.751 13.0039 104.318 12.9351 103.729 12.9351H100.657V17.5494C100.657 18.1688 100.684 18.5457 100.739 18.68C100.796 18.8165 100.899 18.9292 101.029 18.9996C101.166 19.0792 101.428 19.124 101.814 19.124H104.188C104.979 19.124 105.553 19.0689 105.912 18.9586C106.303 18.8277 106.657 18.6046 106.944 18.3081C107.371 17.877 107.808 17.2319 108.255 16.3728H108.668L107.46 19.8827H96.6719V19.5009H97.1694C97.4977 19.5013 97.8209 19.4197 98.1096 19.2633C98.2136 19.2142 98.3069 19.1449 98.3839 19.0595C98.461 18.9741 98.5204 18.8743 98.5586 18.7658C98.637 18.5444 98.683 18.0942 98.683 17.4126V8.31956C98.683 7.43153 98.5935 6.88428 98.4144 6.67781C98.1656 6.40336 97.751 6.26572 97.1706 6.26489H96.6731V5.88306H107.46L107.616 8.95512H107.211C107.067 8.21882 106.907 7.71303 106.731 7.43774C106.543 7.15205 106.271 6.93208 105.951 6.80841C105.676 6.70559 105.191 6.65377 104.496 6.65294L100.657 6.64672Z" fill="#454545"/>
<path d="M118.827 15.1948H113.407L112.458 17.405C112.223 17.9489 112.106 18.3548 112.106 18.6226C112.109 18.7338 112.138 18.8428 112.191 18.9407C112.244 19.0386 112.319 19.1226 112.41 19.186C112.613 19.3519 113.052 19.4567 113.727 19.5007V19.8825H109.318V19.5007C109.904 19.3979 110.282 19.2636 110.454 19.0977C110.805 18.7661 111.194 18.0948 111.621 17.0841L116.546 5.56323H116.913L121.786 17.2085C122.179 18.1446 122.535 18.752 122.854 19.0306C123.173 19.3092 123.619 19.4659 124.191 19.5007V19.8825H118.661V19.5007C119.22 19.4733 119.597 19.3805 119.792 19.2221C119.883 19.1556 119.957 19.0686 120.008 18.9681C120.06 18.8676 120.086 18.7565 120.087 18.6438C120.087 18.3403 119.949 17.8618 119.674 17.2085L118.827 15.1948ZM118.538 14.4274L116.166 8.77335L113.727 14.4274H118.538Z" fill="#454545"/>
<path d="M124.784 19.8827V19.5009H125.31C125.902 19.5009 126.322 19.3114 126.57 18.9325C126.722 18.7061 126.798 18.197 126.798 17.4052V8.36061C126.798 7.48749 126.701 6.94024 126.508 6.71886C126.239 6.41621 125.84 6.26489 125.31 6.26489H124.784V5.88306H130.483C132.575 5.88306 134.167 6.12061 135.258 6.59573C136.349 7.07084 137.227 7.86228 137.891 8.97004C138.554 10.0778 138.886 11.358 138.886 12.8107C138.886 14.7585 138.294 16.3861 137.11 17.6937C135.783 19.153 133.759 19.8827 131.039 19.8827H124.784ZM128.779 18.8715C129.5 19.0442 130.237 19.1409 130.978 19.1601C132.575 19.1601 133.902 18.5992 134.958 17.4773C136.014 16.3554 136.541 14.8343 136.538 12.914C136.538 10.9795 136.011 9.45511 134.958 8.34071C133.905 7.22631 132.553 6.66869 130.901 6.66786C130.187 6.68102 129.476 6.78169 128.787 6.96761L128.779 18.8715Z" fill="#454545"/>
<path d="M142.335 17.8801C142.487 17.8768 142.637 17.9048 142.778 17.9624C142.918 18.0199 143.045 18.1058 143.151 18.2147C143.311 18.3757 143.419 18.5803 143.462 18.8028C143.506 19.0254 143.483 19.2558 143.395 19.465C143.308 19.6743 143.161 19.853 142.972 19.9787C142.783 20.1043 142.562 20.1713 142.335 20.1711C142.185 20.1711 142.036 20.1415 141.897 20.0839C141.758 20.0264 141.631 19.942 141.525 19.8356C141.419 19.7293 141.334 19.603 141.277 19.464C141.219 19.325 141.189 19.1761 141.189 19.0256C141.189 18.8752 141.219 18.7263 141.277 18.5873C141.334 18.4483 141.419 18.322 141.525 18.2157C141.631 18.1093 141.758 18.0249 141.897 17.9673C142.036 17.9098 142.185 17.8801 142.335 17.8801Z" fill="#454545"/>
<path d="M157.708 5.56323L158.027 10.3231H157.708C157.282 8.89938 156.673 7.87412 155.881 7.24727C155.089 6.62042 154.139 6.30658 153.031 6.30575C152.141 6.29498 151.266 6.54065 150.511 7.01344C149.765 7.48524 149.175 8.23729 148.742 9.26961C148.308 10.3019 148.093 11.5871 148.096 13.1252C148.096 14.3914 148.299 15.4892 148.706 16.4187C149.075 17.3065 149.717 18.0545 150.538 18.5554C151.38 19.0599 152.348 19.3184 153.33 19.3017C154.169 19.3192 154.998 19.1181 155.736 18.7184C156.43 18.3295 157.194 17.5567 158.027 16.4L158.348 16.6065C157.645 17.8502 156.826 18.7623 155.891 19.3427C154.955 19.9232 153.844 20.2134 152.556 20.2134C150.234 20.2134 148.438 19.3531 147.167 17.6326C146.217 16.3524 145.742 14.8449 145.742 13.1103C145.727 11.7667 146.051 10.4409 146.682 9.25468C147.271 8.12282 148.167 7.18002 149.268 6.5346C150.358 5.89348 151.601 5.55993 152.866 5.56945C153.909 5.57816 154.935 5.8339 155.86 6.3157C156.149 6.46744 156.356 6.54331 156.481 6.54331C156.571 6.54339 156.659 6.52573 156.742 6.49136C156.824 6.45698 156.899 6.40658 156.962 6.34306C157.157 6.12511 157.289 5.85747 157.343 5.56945L157.708 5.56323Z" fill="#454545"/>
<path d="M166.813 5.56323C168.63 5.56323 170.205 6.2531 171.54 7.63283C172.874 9.01257 173.54 10.7352 173.537 12.8006C173.537 14.9274 172.866 16.6927 171.523 18.0965C170.181 19.5003 168.557 20.2022 166.65 20.2022C164.723 20.2022 163.105 19.5173 161.794 18.1475C160.483 16.7777 159.826 15.0058 159.822 12.8317C159.822 10.6079 160.579 8.79408 162.093 7.3903C163.409 6.17308 164.983 5.56406 166.813 5.56323ZM166.618 6.31695C165.364 6.31695 164.359 6.78128 163.603 7.70995C162.661 8.87078 162.189 10.5639 162.189 12.7894C162.189 15.0754 162.678 16.8341 163.654 18.0654C164.401 19.0024 165.392 19.4704 166.628 19.4696C167.942 19.4696 169.028 18.9568 169.885 17.9311C170.743 16.9054 171.171 15.2885 171.17 13.0805C171.17 10.685 170.699 8.89897 169.756 7.72238C168.999 6.78542 167.953 6.31695 166.618 6.31695Z" fill="#454545"/>
<path d="M183.001 19.8827L177.591 8.10315V17.4562C177.591 18.3168 177.684 18.8558 177.871 19.073C178.125 19.3624 178.527 19.5071 179.079 19.5071H179.576V19.8889H174.703V19.5071H175.201C175.793 19.5071 176.212 19.328 176.459 18.9698C176.611 18.7492 176.687 18.2468 176.687 17.4624V8.30961C176.687 7.69023 176.618 7.24289 176.48 6.96761C176.362 6.74826 176.175 6.57358 175.948 6.47011C175.691 6.33578 175.275 6.26862 174.704 6.26862V5.88306H178.669L183.749 16.8368L188.745 5.88306H192.71V6.26489H192.225C191.626 6.26489 191.202 6.44399 190.955 6.80219C190.803 7.02275 190.728 7.52522 190.728 8.30961V17.4562C190.728 18.3168 190.824 18.8558 191.016 19.073C191.272 19.3624 191.675 19.5071 192.225 19.5071H192.71V19.8889H186.763V19.5071H187.26C187.859 19.5071 188.279 19.328 188.52 18.9698C188.671 18.7492 188.746 18.2468 188.746 17.4624V8.10315L183.347 19.8827H183.001Z" fill="#454545"/>
</svg>
