<?xml version="1.0" encoding="UTF-8"?>
<svg version="1.1" xmlns="http://www.w3.org/2000/svg" width="500" height="500">
<path d="M0 0 C18.34918868 15.6462274 32.87922945 34.16642848 44.29492188 55.34301758 C44.86726563 56.34719727 45.43960937 57.35137695 46.02929688 58.38598633 C56.02601998 76.84323885 61.36810631 97.67766953 64.29492188 118.34301758 C64.46854248 119.44242676 64.64216309 120.54183594 64.82104492 121.67456055 C65.65890608 128.16075415 65.58574298 134.68698495 65.60742188 141.21801758 C65.61004028 141.96990356 65.61265869 142.72178955 65.61535645 143.49645996 C65.62211064 161.68165191 64.23930472 181.30301933 57.29492188 198.34301758 C56.63492187 198.67301758 55.97492188 199.00301758 55.29492188 199.34301758 C51.66492188 196.70301758 48.03492188 194.06301758 44.29492188 191.34301758 C44.63265625 189.48418945 44.97039062 187.62536133 45.31835938 185.71020508 C45.76901295 183.21283319 46.21952625 180.715436 46.66992188 178.21801758 C46.89164062 176.99985352 47.11335938 175.78168945 47.34179688 174.52661133 C47.5609375 173.30844727 47.78007812 172.0902832 48.00585938 170.83520508 C48.2048584 169.73547363 48.40385742 168.63574219 48.60888672 167.50268555 C49.60462748 161.46516556 50.4295532 155.40059831 51.29492188 149.34301758 C21.92492187 149.34301758 -7.44507813 149.34301758 -37.70507812 149.34301758 C-38.03507812 155.94301758 -38.36507813 162.54301758 -38.70507812 169.34301758 C-39.05219014 173.03694614 -39.41834059 176.62514987 -39.95507812 180.28051758 C-40.05175781 181.10229492 -40.1484375 181.92407227 -40.24804688 182.77075195 C-41.03045262 188.19924128 -42.31223768 190.76875764 -46.70507812 194.34301758 C-47.63707031 195.15383789 -48.5690625 195.9646582 -49.52929688 196.80004883 C-50.47417969 197.57735352 -51.4190625 198.3546582 -52.39257812 199.15551758 C-53.34519531 199.94571289 -54.2978125 200.7359082 -55.27929688 201.55004883 C-57.70507812 203.34301758 -57.70507812 203.34301758 -59.70507812 203.34301758 C-59.59437988 202.79589111 -59.48368164 202.24876465 -59.36962891 201.68505859 C-55.8478025 184.13639498 -53.82550049 167.26977536 -52.70507812 149.34301758 C-72.83507812 149.34301758 -92.96507812 149.34301758 -113.70507812 149.34301758 C-113.37507812 167.82301758 -113.04507813 186.30301758 -112.70507812 205.34301758 C-105.11507812 206.00301758 -97.52507812 206.66301758 -89.70507812 207.34301758 C-70.84793527 209.9620652 -70.84793527 209.9620652 -66.70507812 211.34301758 C-67.85765601 214.69597143 -69.39746651 217.55104838 -71.28710938 220.53051758 C-71.73932861 221.24594727 -72.19154785 221.96137695 -72.6574707 222.69848633 C-73.00318115 223.24118164 -73.3488916 223.78387695 -73.70507812 224.34301758 C-74.91679687 224.2218457 -76.12851562 224.10067383 -77.37695312 223.97583008 C-78.1890625 223.89461914 -79.00117188 223.8134082 -79.83789062 223.72973633 C-91.12695313 222.60083008 -102.41601562 221.47192383 -113.70507812 220.34301758 C-113.37507812 246.74301758 -113.04507813 273.14301758 -112.70507812 300.34301758 C-109.75523499 300.68730331 -109.75523499 300.68730331 -108.34570312 299.05224609 C-107.88679687 298.44823975 -107.42789063 297.8442334 -106.95507812 297.22192383 C-106.43405518 296.54129883 -105.91303223 295.86067383 -105.3762207 295.15942383 C-104.82474365 294.41563477 -104.2732666 293.6718457 -103.70507812 292.90551758 C-103.13490967 292.15012695 -102.56474121 291.39473633 -101.97729492 290.61645508 C-97.39892676 284.47048312 -93.17725602 278.12279193 -89.1328125 271.61474609 C-85.89805742 266.43950722 -85.89805742 266.43950722 -83.70507812 265.34301758 C-78.80380304 283.57586728 -78.80380304 283.57586728 -82.67382812 290.98364258 C-85.30981374 295.09099783 -88.42408304 298.7420032 -91.70507812 302.34301758 C-92.5378125 303.31625977 -93.37054688 304.28950195 -94.22851562 305.29223633 C-95.5697173 306.83437616 -96.93659199 308.35505727 -98.34179688 309.83911133 C-99.81701454 311.12819298 -99.81701454 311.12819298 -99.70507812 312.34301758 C-98.96870117 312.18631592 -98.23232422 312.02961426 -97.47363281 311.86816406 C-94.13595593 311.16321007 -90.79562686 310.47172881 -87.45507812 309.78051758 C-86.29621094 309.53366211 -85.13734375 309.28680664 -83.94335938 309.0324707 C-82.27080078 308.68925781 -82.27080078 308.68925781 -80.56445312 308.33911133 C-79.0248291 308.01704712 -79.0248291 308.01704712 -77.45410156 307.68847656 C-74.76795047 307.3509185 -73.19428955 307.32293984 -70.70507812 308.34301758 C-68.78320312 310.84692383 -68.78320312 310.84692383 -66.95507812 313.90551758 C-66.34148437 314.91743164 -65.72789062 315.9293457 -65.09570312 316.97192383 C-64.63679687 317.75438477 -64.17789063 318.5368457 -63.70507812 319.34301758 C-68.99272832 321.81434277 -74.0544199 323.26476372 -79.76757812 324.40551758 C-80.52490234 324.56600586 -81.28222656 324.72649414 -82.0625 324.8918457 C-94.70016021 327.49034066 -107.13437236 328.75415202 -120.01757812 328.71801758 C-120.75397522 328.71747375 -121.49037231 328.71692993 -122.24908447 328.71636963 C-143.16379013 328.64592318 -162.94657116 325.23922815 -182.70507812 318.34301758 C-183.68081787 318.00729736 -183.68081787 318.00729736 -184.67626953 317.66479492 C-217.12437157 306.26411042 -246.82459945 284.63074594 -267.70507812 257.34301758 C-268.38376953 256.46226562 -268.38376953 256.46226562 -269.07617188 255.5637207 C-298.94344032 216.34775441 -311.55127651 167.19039297 -306.01367188 118.37036133 C-299.63089628 71.5680578 -275.23366974 26.47833568 -238.13476562 -3.10620117 C-225.5011167 -12.66501431 -212.21638999 -21.26100136 -197.70507812 -27.65698242 C-196.51140625 -28.18549805 -195.31773437 -28.71401367 -194.08789062 -29.25854492 C-128.93883603 -56.5791162 -54.23109628 -45.2617769 0 0 Z M-244.86132812 23.39379883 C-245.46976563 24.03704102 -246.07820313 24.6802832 -246.70507812 25.34301758 C-246.04507813 25.67301758 -245.38507813 26.00301758 -244.70507812 26.34301758 C-245.03507812 27.33301758 -245.36507812 28.32301758 -245.70507812 29.34301758 C-232.14398817 38.70083332 -217.74154616 45.61743933 -202.33007812 51.40551758 C-201.53964111 51.70474121 -200.7492041 52.00396484 -199.93481445 52.31225586 C-196.07485882 53.7100207 -192.87711718 54.73362681 -188.70507812 54.34301758 C-184.70043195 45.76455546 -184.70043195 45.76455546 -180.87695312 37.10473633 C-172.65779589 18.00578745 -162.41716275 0.75317308 -149.82617188 -15.80932617 C-146.96016377 -19.65706081 -144.30198373 -23.62414078 -141.70507812 -27.65698242 C-179.41321362 -29.153337 -219.80030516 -2.44116749 -244.86132812 23.39379883 Z M-99.70507812 -27.65698242 C-96.58669027 -22.80177096 -93.31003242 -18.09285937 -89.85620117 -13.47216797 C-73.90833386 7.90003059 -62.79039368 30.71621636 -52.70507812 55.34301758 C-31.27145647 48.77303331 -12.57869165 40.47363453 6.29492188 28.34301758 C-1.74482366 8.19522155 -33.40756239 -7.3700135 -52.11523438 -15.73901367 C-66.83938214 -22.04936271 -83.48874366 -28.07786439 -99.70507812 -27.65698242 Z M-113.70507812 -20.65698242 C-113.70507812 7.39301758 -113.70507812 35.44301758 -113.70507812 64.34301758 C-105.12843898 64.42052992 -105.12843898 64.42052992 -96.76757812 63.75708008 C-95.76984375 63.63075195 -94.77210938 63.50442383 -93.74414062 63.37426758 C-92.23980469 63.17317383 -92.23980469 63.17317383 -90.70507812 62.96801758 C-89.7021875 62.84168945 -88.69929688 62.71536133 -87.66601562 62.58520508 C-82.60322811 61.93109816 -77.55437703 61.1977872 -72.51757812 60.36645508 C-71.61652344 60.21869629 -70.71546875 60.0709375 -69.78710938 59.91870117 C-69.10003906 59.72872559 -68.41296875 59.53875 -67.70507812 59.34301758 C-66.46888287 57.43480223 -66.46888287 57.43480223 -67.19897461 55.62573242 C-67.48844971 54.9420459 -67.7779248 54.25835937 -68.07617188 53.55395508 C-68.56041626 52.4010498 -68.56041626 52.4010498 -69.05444336 51.22485352 C-69.59307007 49.98396973 -69.59307007 49.98396973 -70.14257812 48.71801758 C-70.50875244 47.86498047 -70.87492676 47.01194336 -71.25219727 46.13305664 C-81.68839957 22.1014163 -95.02655961 -1.97846391 -113.70507812 -20.65698242 Z M-130.34960938 -18.06713867 C-148.20934002 1.27285794 -160.94580476 24.67248702 -171.26757812 48.71801758 C-171.6266626 49.54527344 -171.98574707 50.3725293 -172.35571289 51.22485352 C-172.67854248 51.99345703 -173.00137207 52.76206055 -173.33398438 53.55395508 C-173.62345947 54.2376416 -173.91293457 54.92132813 -174.21118164 55.62573242 C-174.94127338 57.43480223 -174.94127338 57.43480223 -173.70507812 59.34301758 C-171.21161759 59.95490973 -168.79637521 60.43434839 -166.26757812 60.84301758 C-165.51202637 60.96974854 -164.75647461 61.09647949 -163.97802734 61.22705078 C-158.44497106 62.12681349 -152.89793771 62.88213577 -147.33007812 63.53051758 C-146.28122437 63.65620117 -146.28122437 63.65620117 -145.21118164 63.78442383 C-139.28455115 64.42626221 -133.76801747 64.34301758 -127.70507812 64.34301758 C-127.70507812 36.62301758 -127.70507812 8.90301758 -127.70507812 -19.65698242 C-128.9664807 -19.77282434 -128.9664807 -19.77282434 -130.34960938 -18.06713867 Z M-247.70507812 26.34301758 C-246.70507812 28.34301758 -246.70507812 28.34301758 -246.70507812 28.34301758 Z M15.29492188 38.34301758 C14.73546875 38.75551758 14.17601562 39.16801758 13.59960938 39.59301758 C2.38598408 47.66971232 -9.08268721 53.68805695 -21.76757812 59.09301758 C-23.38116211 59.78282715 -23.38116211 59.78282715 -25.02734375 60.48657227 C-32.45964761 63.58826017 -39.96972096 66.10739264 -47.70507812 68.34301758 C-47.02634683 74.81003038 -45.72106323 81.01012601 -44.26757812 87.34301758 C-41.32004265 100.57118678 -39.66950505 113.60493486 -38.95117188 127.13598633 C-38.74518975 130.66469675 -38.74518975 130.66469675 -37.70507812 135.34301758 C-8.66507812 135.34301758 20.37492188 135.34301758 50.29492188 135.34301758 C51.10011327 131.31706059 51.38145263 129.3966848 50.87695312 125.56958008 C50.75916504 124.66989502 50.64137695 123.77020996 50.52001953 122.84326172 C50.3838623 121.89443115 50.24770508 120.94560059 50.10742188 119.96801758 C49.89931885 118.49353149 49.89931885 118.49353149 49.68701172 116.98925781 C48.48509862 108.88528919 46.72163135 101.17706882 44.29492188 93.34301758 C43.7921875 91.6047168 43.7921875 91.6047168 43.27929688 89.83129883 C37.80088301 71.9878734 29.18927758 51.31742736 15.29492188 38.34301758 Z M-258.70507812 39.34301758 C-260.4091344 41.4561704 -261.87062977 43.50499717 -263.33007812 45.78051758 C-263.76739258 46.45211914 -264.20470703 47.1237207 -264.65527344 47.81567383 C-280.94561234 73.27887119 -292.47630727 103.74491535 -292.70507812 134.34301758 C-290.89392189 136.15417381 -288.40630312 135.46297134 -285.99606323 135.46743774 C-284.76715866 135.46204483 -284.76715866 135.46204483 -283.51342773 135.45654297 C-282.6549675 135.456689 -281.79650726 135.45683502 -280.91203308 135.45698547 C-278.06047074 135.45628605 -275.20897287 135.44849228 -272.35742188 135.44067383 C-270.38586971 135.43880975 -268.41431708 135.4373858 -266.44276428 135.43638611 C-261.24281546 135.43256009 -256.04289437 135.4227291 -250.84295654 135.41168213 C-245.54114151 135.4014698 -240.23932202 135.39688887 -234.9375 135.3918457 C-224.52668049 135.3811069 -214.11588161 135.36402948 -203.70507812 135.34301758 C-203.05152197 132.1739219 -202.55711032 129.14494914 -202.38085938 125.91333008 C-201.43283346 111.34474245 -198.97042518 97.36664497 -196.04492188 83.09692383 C-195.04073864 78.18256305 -194.21594238 73.33182781 -193.70507812 68.34301758 C-194.31802734 68.13733154 -194.93097656 67.93164551 -195.5625 67.71972656 C-216.34657711 60.71073571 -235.9955596 53.27184926 -253.93554688 40.37426758 C-255.79572115 39.09125997 -255.79572115 39.09125997 -258.70507812 39.34301758 Z M-178.70507812 72.34301758 C-180.86939393 77.05686875 -182.29958556 81.36419261 -183.27539062 86.49145508 C-183.40195038 87.14828278 -183.52851013 87.80511047 -183.65890503 88.48184204 C-183.92301382 89.86095861 -184.18331708 91.24080903 -184.43994141 92.62133789 C-184.8281072 94.70742539 -185.2284332 96.7908891 -185.63085938 98.87426758 C-188.02279481 111.37296193 -188.70507812 122.3445995 -188.70507812 135.34301758 C-168.57507813 135.34301758 -148.44507813 135.34301758 -127.70507812 135.34301758 C-127.70507812 116.53301758 -127.70507812 97.72301758 -127.70507812 78.34301758 C-135.29507813 77.68301758 -142.88507813 77.02301758 -150.70507812 76.34301758 C-155.86860103 75.68281913 -161.00021378 75.00111875 -166.14257812 74.21801758 C-167.37427734 74.03625977 -168.60597656 73.85450195 -169.875 73.66723633 C-172.81932155 73.23188917 -175.76259586 72.79059542 -178.70507812 72.34301758 Z M-68.77929688 73.14770508 C-81.08889017 75.14531037 -93.31384733 76.84637109 -105.7565918 77.74682617 C-106.65869385 77.81337402 -107.5607959 77.87992187 -108.49023438 77.94848633 C-109.28308838 78.00157959 -110.07594238 78.05467285 -110.89282227 78.109375 C-112.72350159 78.15781169 -112.72350159 78.15781169 -113.70507812 79.34301758 C-113.79872819 81.09230478 -113.8225225 82.84538012 -113.81860352 84.59716797 C-113.81848267 85.73400024 -113.81836182 86.87083252 -113.8182373 88.04211426 C-113.81312134 89.24613892 -113.80800537 90.45016357 -113.80273438 91.69067383 C-113.80172729 92.79052612 -113.80072021 93.89037842 -113.79968262 95.02355957 C-113.79443174 99.15088944 -113.78047063 103.2782045 -113.76757812 107.40551758 C-113.74695313 116.62489258 -113.72632813 125.84426758 -113.70507812 135.34301758 C-93.57507813 135.34301758 -73.44507813 135.34301758 -52.70507812 135.34301758 C-52.59893372 122.16468737 -52.59893372 122.16468737 -53.89257812 109.28051758 C-54.02132324 108.42345215 -54.15006836 107.56638672 -54.28271484 106.68334961 C-56.08028287 95.24933443 -58.03899626 83.34126316 -61.70507812 72.34301758 C-64.13666392 72.34301758 -66.37833272 72.74896205 -68.77929688 73.14770508 Z M-292.70507812 149.34301758 C-290.02627379 184.1674739 -280.42663832 217.38526752 -258.70507812 245.34301758 C-254.58524645 244.70056858 -251.41585934 242.4552493 -247.95507812 240.28051758 C-230.887068 229.84043502 -212.76003393 222.35840559 -193.70507812 216.34301758 C-194.34814818 210.0631606 -195.55810058 203.96367853 -196.82543945 197.78198242 C-199.63742451 184.05523073 -201.73853413 170.54994998 -202.50317383 156.5300293 C-202.72646328 154.11137522 -203.22872395 151.72478843 -203.70507812 149.34301758 C-233.07507813 149.34301758 -262.44507813 149.34301758 -292.70507812 149.34301758 Z M-188.70507812 149.34301758 C-188.81206611 162.52099744 -188.81206611 162.52099744 -187.51757812 175.40551758 C-187.38738281 176.26258301 -187.2571875 177.11964844 -187.12304688 178.00268555 C-186.0096758 185.02831008 -184.65701914 192.0051635 -183.20507812 198.96801758 C-182.90307495 200.45313843 -182.90307495 200.45313843 -182.5949707 201.96826172 C-182.29369263 203.34872681 -182.29369263 203.34872681 -181.98632812 204.75708008 C-181.81166016 205.57128418 -181.63699219 206.38548828 -181.45703125 207.22436523 C-180.57118367 209.72026956 -179.91112567 210.85954564 -177.70507812 212.34301758 C-175.15686024 212.4200825 -175.15686024 212.4200825 -172.31445312 211.83129883 C-171.20972656 211.65018555 -170.105 211.46907227 -168.96679688 211.2824707 C-167.80792969 211.07557617 -166.6490625 210.86868164 -165.45507812 210.65551758 C-152.85780032 208.47088835 -140.54891194 207.45987269 -127.70507812 206.34301758 C-127.70507812 187.53301758 -127.70507812 168.72301758 -127.70507812 149.34301758 C-147.83507812 149.34301758 -167.96507812 149.34301758 -188.70507812 149.34301758 Z M-146.13085938 221.14770508 C-148.06735352 221.40487305 -148.06735352 221.40487305 -150.04296875 221.66723633 C-150.69628174 221.7579541 -151.34959473 221.84867187 -152.02270508 221.94213867 C-154.03085576 222.2198538 -156.04053229 222.48331407 -158.05078125 222.74536133 C-163.84135714 223.52983473 -169.19192685 224.34706568 -174.70507812 226.34301758 C-170.80267738 237.45894697 -166.23900668 247.94432057 -160.70507812 258.34301758 C-160.36105957 258.9977002 -160.01704102 259.65238281 -159.66259766 260.3269043 C-146.78223247 284.95132145 -146.78223247 284.95132145 -127.70507812 304.34301758 C-127.70507812 276.62301758 -127.70507812 248.90301758 -127.70507812 220.34301758 C-137.03201947 220.32428446 -137.03201947 220.32428446 -146.13085938 221.14770508 Z M-247.70507812 256.34301758 C-239.14436762 277.13331452 -206.61265962 293.00316123 -187.05615234 301.38452148 C-172.4135921 307.3540637 -156.67642904 312.69022086 -140.70507812 312.34301758 C-143.85729025 308.06842689 -147.07701243 303.87951192 -150.45507812 299.78051758 C-167.37446921 278.59923442 -178.48906773 254.24796467 -188.70507812 229.34301758 C-206.4281104 229.34301758 -234.3150038 245.96364012 -247.70507812 256.34301758 Z " fill="#4B4B49" transform="translate(370.705078125,107.656982421875)"/>
<path d="M0 0 C16.91445459 14.82247077 26.90374968 32.88739299 28.625 55.59375 C29.13310384 76.7352879 22.14459662 96.02925979 7.69140625 111.44921875 C-7.54163053 126.88468791 -26.19998147 135.98975046 -48.16015625 136.20703125 C-69.95871673 135.99134952 -88.28890241 126.9391742 -103.66015625 111.83203125 C-104.28664063 111.2184375 -104.913125 110.60484375 -105.55859375 109.97265625 C-118.85753901 95.89142009 -125.11387208 76.1519326 -124.875 57.015625 C-124.12864882 45.95605749 -121.54648694 35.79431143 -116.66015625 25.83203125 C-116.27988281 25.04441406 -115.89960938 24.25679688 -115.5078125 23.4453125 C-108.38785434 9.70882756 -97.19650965 -0.89058753 -83.66015625 -8.16796875 C-82.45746094 -8.84666016 -82.45746094 -8.84666016 -81.23046875 -9.5390625 C-55.42782101 -23.42962526 -22.25775658 -18.13958135 0 0 Z M-88.47265625 21.51953125 C-90.16681315 24.8186789 -90.96151679 28.15019163 -90.66015625 31.83203125 C-88.72877407 36.33161716 -86.50721115 39.30584006 -82.95703125 42.65234375 C-82.05984375 43.51730469 -81.16265625 44.38226563 -80.23828125 45.2734375 C-78.34073817 47.0740067 -76.439645 48.87084144 -74.53515625 50.6640625 C-73.643125 51.52644531 -72.75109375 52.38882813 -71.83203125 53.27734375 C-71.00799805 54.05609863 -70.18396484 54.83485352 -69.33496094 55.63720703 C-67.66015625 57.83203125 -67.66015625 57.83203125 -67.62426758 59.82983398 C-69.03215738 62.5510464 -70.84923909 64.30256404 -73.0625 66.421875 C-73.95259766 67.28876953 -74.84269531 68.15566406 -75.75976562 69.04882812 C-77.64770588 70.85880801 -79.53572638 72.6687042 -81.42382812 74.47851562 C-82.31521484 75.34669922 -83.20660156 76.21488281 -84.125 77.109375 C-84.94605225 77.89562256 -85.76710449 78.68187012 -86.61303711 79.49194336 C-89.14738251 82.38898577 -90.55742385 85.02394103 -90.77734375 88.89453125 C-90.18994563 93.59371624 -89.22821781 96.46219533 -85.66015625 99.83203125 C-81.98875766 102.13976751 -78.44782079 102.24513579 -74.2434082 101.73291016 C-68.58800995 99.76065616 -64.80373749 94.64966349 -60.84765625 90.33203125 C-59.01837177 88.37364693 -57.17527932 86.4299907 -55.328125 84.48828125 C-54.52656982 83.62009766 -53.72501465 82.75191406 -52.89916992 81.85742188 C-49.42781965 78.7172712 -49.42781965 78.7172712 -46.66015625 78.83203125 C-44.3293457 80.72216797 -44.3293457 80.72216797 -41.7734375 83.51171875 C-40.82528271 84.51341184 -39.87670096 85.51470094 -38.92773438 86.515625 C-37.45035415 88.10431637 -35.98015673 89.6988015 -34.51879883 91.30224609 C-28.26475794 98.61802344 -28.26475794 98.61802344 -19.6640625 102.1015625 C-14.80928382 102.14495402 -11.38191259 100.43504578 -7.84765625 97.14453125 C-5.77142051 93.10133534 -5.03362048 88.89990366 -6.36376953 84.50976562 C-7.93812872 81.2578689 -9.86137089 79.37124504 -12.484375 76.890625 C-13.42990234 75.97732422 -14.37542969 75.06402344 -15.34960938 74.12304688 C-16.85329633 72.68792232 -18.36079878 71.25714164 -19.87329102 69.83129883 C-21.33745335 68.44538322 -22.78618302 67.04322024 -24.234375 65.640625 C-25.10666748 64.81361084 -25.97895996 63.98659668 -26.87768555 63.13452148 C-28.66015625 60.83203125 -28.66015625 60.83203125 -28.7277832 58.82324219 C-27.24292399 56.05385922 -25.31232122 54.29531905 -23.00390625 52.1640625 C-22.06417969 51.27009766 -21.12445313 50.37613281 -20.15625 49.45507812 C-18.6632769 48.04853 -17.16518138 46.64913558 -15.65283203 45.26342773 C-8.65770525 39.18895358 -8.65770525 39.18895358 -5.4296875 30.8671875 C-5.3467567 25.97539887 -7.02282092 22.52784284 -10.41015625 19.01953125 C-14.61796965 16.79874085 -18.1579625 16.41454339 -22.73828125 17.6875 C-28.56037952 20.33046182 -32.7343002 25.49282422 -37.09765625 30.01953125 C-38.01998047 30.95990234 -38.94230469 31.90027344 -39.89257812 32.86914062 C-42.15778248 35.18129222 -44.41309026 37.50227069 -46.66015625 39.83203125 C-50.79622076 38.46789388 -53.13426172 36.68665793 -56.12890625 33.55078125 C-56.94746094 32.70902344 -57.76601563 31.86726563 -58.609375 31 C-60.30989583 29.22135417 -62.01041667 27.44270833 -63.7109375 25.6640625 C-64.52949219 24.82230469 -65.34804688 23.98054688 -66.19140625 23.11328125 C-66.92939453 22.34048828 -67.66738281 21.56769531 -68.42773438 20.77148438 C-71.42758069 18.16531867 -74.17571384 17.02234438 -78.09765625 16.51953125 C-82.27210082 17.02860986 -85.40476137 18.66321533 -88.47265625 21.51953125 Z " fill="#E4141F" transform="translate(419.66015625,312.16796875)"/>
<path d="M0 0 C0.66 0.33 1.32 0.66 2 1 C-5.59 8.59 -13.18 16.18 -21 24 C-21.66 23.67 -22.32 23.34 -23 23 C-15.74913262 14.82136415 -8.17863585 7.25086738 0 0 Z " fill="#8D8D8C" transform="translate(131,106)"/>
<path d="M0 0 C-1.39750048 3.15835107 -3.05198234 5.32272825 -5.5 7.75 C-6.41265625 8.67039062 -6.41265625 8.67039062 -7.34375 9.609375 C-9 11 -9 11 -11 11 C-9.60249952 7.84164893 -7.94801766 5.67727175 -5.5 3.25 C-4.8915625 2.63640625 -4.283125 2.0228125 -3.65625 1.390625 C-2 0 -2 0 0 0 Z " fill="#EB6D74" transform="translate(324,313)"/>
<path d="M0 0 C0.33 0.66 0.66 1.32 1 2 C0.34 1.67 -0.32 1.34 -1 1 C-0.67 0.67 -0.34 0.34 0 0 Z " fill="#F6F6F6" transform="translate(273,417)"/>
<path d="M0 0 C0.99 0.495 0.99 0.495 2 1 C1.01 1.495 1.01 1.495 0 2 C0 1.34 0 0.68 0 0 Z " fill="#F6F6F6" transform="translate(258,329)"/>
<path d="M0 0 C0.99 0.495 0.99 0.495 2 1 C1.01 1.495 1.01 1.495 0 2 C0 1.34 0 0.68 0 0 Z " fill="#F6F6F6" transform="translate(258,187)"/>
<path d="" fill="#F6F6F7" transform="translate(0,0)"/>
<path d="" fill="#F6F6F6" transform="translate(0,0)"/>
<path d="" fill="#F6F6F7" transform="translate(0,0)"/>
<path d="" fill="#F6F6F6" transform="translate(0,0)"/>
<path d="" fill="#F6F6F6" transform="translate(0,0)"/>
<path d="" fill="#F6F6F6" transform="translate(0,0)"/>
<path d="" fill="#F6F6F6" transform="translate(0,0)"/>
<path d="" fill="#F6F6F6" transform="translate(0,0)"/>
<path d="" fill="#F6F6F6" transform="translate(0,0)"/>
<path d="" fill="#F6F6F6" transform="translate(0,0)"/>
<path d="" fill="#F6F6F6" transform="translate(0,0)"/>
</svg>
