<svg width="122" height="10" viewBox="0 0 122 10" fill="none" xmlns="http://www.w3.org/2000/svg">
<path d="M3.09562 9.154C2.10628 9.154 1.24295 8.986 0.505617 8.65C0.505617 8.41667 0.524284 8.21133 0.561617 8.034C0.598951 7.85667 0.659617 7.67467 0.743617 7.488C0.976951 7.712 1.29428 7.88933 1.69562 8.02C2.09695 8.14133 2.53095 8.202 2.99762 8.202C3.43628 8.202 3.77228 8.12267 4.00562 7.964C4.24828 7.80533 4.36962 7.58133 4.36962 7.292C4.36962 7.04 4.24828 6.83 4.00562 6.662C3.77228 6.48467 3.39895 6.27467 2.88562 6.032C2.39095 5.79867 1.98962 5.58867 1.68162 5.402C1.38295 5.206 1.12162 4.95867 0.897617 4.66C0.673617 4.352 0.561617 3.988 0.561617 3.568C0.561617 2.96133 0.832284 2.47133 1.37362 2.098C1.91495 1.72467 2.64295 1.538 3.55762 1.538C4.43495 1.538 5.18162 1.65 5.79762 1.874C5.79762 2.13533 5.74162 2.434 5.62962 2.77C5.52695 3.106 5.40095 3.372 5.25162 3.568C4.84095 3.25067 4.42095 2.994 3.99162 2.798C3.57162 2.59267 3.21695 2.49 2.92762 2.49C2.76895 2.518 2.61962 2.60667 2.47962 2.756C2.33962 2.896 2.26962 3.06867 2.26962 3.274C2.26962 3.54467 2.38628 3.76867 2.61962 3.946C2.86228 4.12333 3.24962 4.338 3.78162 4.59C4.25762 4.814 4.64962 5.01933 4.95762 5.206C5.26562 5.39267 5.52695 5.63533 5.74162 5.934C5.95628 6.23267 6.06362 6.59667 6.06362 7.026C6.06362 7.70733 5.81628 8.23467 5.32162 8.608C4.82695 8.972 4.08495 9.154 3.09562 9.154ZM9.52074 9.154C8.69941 9.154 8.06941 8.91133 7.63074 8.426C7.19208 7.93133 6.97274 7.23133 6.97274 6.326C6.97274 5.71 7.10341 5.164 7.36474 4.688C7.62608 4.20267 7.99008 3.82467 8.45674 3.554C8.93274 3.28333 9.47408 3.148 10.0807 3.148C10.8741 3.148 11.4761 3.4 11.8867 3.904C12.2974 4.408 12.5027 5.15467 12.5027 6.144C11.9894 6.26533 11.3827 6.37267 10.6827 6.466C9.99208 6.55 9.31074 6.59667 8.63874 6.606C8.71341 7.01667 8.86741 7.32 9.10074 7.516C9.33408 7.70267 9.66541 7.796 10.0947 7.796C10.9254 7.796 11.6021 7.61867 12.1247 7.264L12.2927 7.908C11.9941 8.28133 11.5881 8.58467 11.0747 8.818C10.5707 9.042 10.0527 9.154 9.52074 9.154ZM8.58274 5.976C8.98408 5.92933 9.38074 5.85933 9.77274 5.766C10.1647 5.67267 10.4821 5.57 10.7247 5.458C10.7061 5.038 10.5754 4.688 10.3327 4.408C10.0901 4.11867 9.78674 3.974 9.42274 3.974C9.17074 4.13267 8.97008 4.394 8.82074 4.758C8.67141 5.122 8.59208 5.528 8.58274 5.976ZM16.0286 9.154C15.2072 9.154 14.5772 8.91133 14.1386 8.426C13.6999 7.93133 13.4806 7.23133 13.4806 6.326C13.4806 5.71 13.6112 5.164 13.8726 4.688C14.1339 4.20267 14.4979 3.82467 14.9646 3.554C15.4406 3.28333 15.9819 3.148 16.5886 3.148C17.3819 3.148 17.9839 3.4 18.3946 3.904C18.8052 4.408 19.0106 5.15467 19.0106 6.144C18.4972 6.26533 17.8906 6.37267 17.1906 6.466C16.4999 6.55 15.8186 6.59667 15.1466 6.606C15.2212 7.01667 15.3752 7.32 15.6086 7.516C15.8419 7.70267 16.1732 7.796 16.6026 7.796C17.4332 7.796 18.1099 7.61867 18.6326 7.264L18.8006 7.908C18.5019 8.28133 18.0959 8.58467 17.5826 8.818C17.0786 9.042 16.5606 9.154 16.0286 9.154ZM15.0906 5.976C15.4919 5.92933 15.8886 5.85933 16.2806 5.766C16.6726 5.67267 16.9899 5.57 17.2326 5.458C17.2139 5.038 17.0832 4.688 16.8406 4.408C16.5979 4.11867 16.2946 3.974 15.9306 3.974C15.6786 4.13267 15.4779 4.394 15.3286 4.758C15.1792 5.122 15.0999 5.528 15.0906 5.976ZM26.0273 9.154C25.486 9.154 25.0053 9.03733 24.5853 8.804C24.1746 8.56133 23.8526 8.22533 23.6193 7.796C23.3953 7.36667 23.2833 6.872 23.2833 6.312C23.2833 5.696 23.4186 5.15 23.6893 4.674C23.9693 4.18867 24.352 3.81533 24.8373 3.554C25.332 3.28333 25.892 3.148 26.5173 3.148C27.0773 3.148 27.572 3.26933 28.0013 3.512C28.4306 3.74533 28.762 4.07667 28.9953 4.506C29.2286 4.93533 29.3453 5.43 29.3453 5.99C29.3453 6.606 29.2053 7.15667 28.9253 7.642C28.6453 8.118 28.2533 8.49133 27.7493 8.762C27.2453 9.02333 26.6713 9.154 26.0273 9.154ZM26.2793 8.384C26.746 8.384 27.11 8.22533 27.3713 7.908C27.642 7.58133 27.7773 7.13333 27.7773 6.564C27.7773 6.06933 27.656 5.64 27.4133 5.276C27.18 4.90267 26.858 4.65533 26.4473 4.534C25.962 4.534 25.5746 4.702 25.2853 5.038C24.996 5.36467 24.8513 5.81267 24.8513 6.382C24.8513 6.98867 24.982 7.474 25.2433 7.838C25.514 8.202 25.8593 8.384 26.2793 8.384ZM32.3839 9.154C31.2453 9.154 30.6759 8.51 30.6759 7.222L30.7039 6.34L30.7319 5.402C30.7319 4.48733 30.6433 3.834 30.4659 3.442C31.0259 3.25533 31.6653 3.162 32.3839 3.162C32.3279 3.946 32.2999 5.15933 32.2999 6.802C32.2999 7.15667 32.3606 7.40867 32.4819 7.558C32.6126 7.70733 32.8226 7.782 33.1119 7.782C33.5133 7.782 33.8679 7.684 34.1759 7.488C34.1759 6.93733 34.1899 6.46133 34.2179 6.06L34.2319 5.402C34.2319 4.48733 34.1433 3.834 33.9659 3.442C34.5259 3.25533 35.1653 3.162 35.8839 3.162C35.8466 3.75933 35.8093 4.47333 35.7719 5.304C35.7346 6.12533 35.7159 6.67133 35.7159 6.942C35.7159 7.32467 35.7533 7.628 35.8279 7.852C35.9026 8.06667 36.0473 8.3 36.2619 8.552C35.7859 8.89733 35.2913 9.098 34.7779 9.154C34.4979 8.958 34.3159 8.678 34.2319 8.314C33.9799 8.57533 33.6906 8.78067 33.3639 8.93C33.0466 9.07933 32.7199 9.154 32.3839 9.154ZM38.7986 9.084C38.5186 9.084 38.1872 9.056 37.8046 9C37.8699 8.06667 37.9026 7.07267 37.9026 6.018C37.9026 5.50467 37.8839 5.11267 37.8466 4.842C37.8186 4.57133 37.7672 4.35667 37.6926 4.198C37.6272 4.03933 37.5152 3.876 37.3566 3.708C37.5339 3.53067 37.7252 3.40467 37.9306 3.33C38.1452 3.246 38.3366 3.204 38.5046 3.204C39.1392 3.204 39.4799 3.54467 39.5266 4.226C39.7599 3.92733 40.0072 3.68467 40.2686 3.498C40.5299 3.31133 40.8286 3.17133 41.1646 3.078C41.2299 3.274 41.2859 3.54933 41.3326 3.904C41.3886 4.24933 41.4166 4.57133 41.4166 4.87C41.2486 4.842 41.0852 4.828 40.9266 4.828C40.6466 4.828 40.3806 4.86533 40.1286 4.94C39.8766 5.00533 39.6666 5.094 39.4986 5.206C39.4799 5.84067 39.4706 6.40533 39.4706 6.9C39.4706 7.88 39.5639 8.58 39.7506 9C39.4892 9.056 39.1719 9.084 38.7986 9.084ZM49.6917 9.084C49.393 9.084 49.0477 9.056 48.6557 9C48.7303 8.50533 48.7723 7.96867 48.7817 7.39H48.0537C47.3537 7.39 46.7983 7.41333 46.3877 7.46C45.9863 7.49733 45.655 7.56733 45.3937 7.67C45.1417 7.48333 45.0157 7.23133 45.0157 6.914C45.0157 6.54067 45.1417 6.13 45.3937 5.682C45.7577 5.04733 46.1777 4.338 46.6537 3.554C47.1297 2.77 47.5777 2.03733 47.9977 1.356C48.399 1.356 48.749 1.38867 49.0477 1.454C49.3557 1.51933 49.645 1.63133 49.9157 1.79C49.4957 2.154 48.9777 2.70933 48.3617 3.456C47.7457 4.19333 47.097 5.08 46.4157 6.116C47.3677 6.13467 48.1657 6.144 48.8097 6.144C48.8003 5.22933 48.7257 4.58067 48.5857 4.198C48.8937 4.142 49.2017 4.114 49.5097 4.114C49.8177 4.114 50.1583 4.142 50.5317 4.198C50.4663 4.71133 50.4197 5.34133 50.3917 6.088C50.8397 6.04133 51.1663 5.976 51.3717 5.892C51.3717 6.15333 51.339 6.438 51.2737 6.746C51.2083 7.04467 51.1243 7.31067 51.0217 7.544L50.3917 7.46C50.4197 8.188 50.4897 8.70133 50.6017 9C50.303 9.056 49.9997 9.084 49.6917 9.084ZM56.6096 9.084C56.311 9.084 55.9656 9.056 55.5736 9C55.6483 8.50533 55.6903 7.96867 55.6996 7.39H54.9716C54.2716 7.39 53.7163 7.41333 53.3056 7.46C52.9043 7.49733 52.573 7.56733 52.3116 7.67C52.0596 7.48333 51.9336 7.23133 51.9336 6.914C51.9336 6.54067 52.0596 6.13 52.3116 5.682C52.6756 5.04733 53.0956 4.338 53.5716 3.554C54.0476 2.77 54.4956 2.03733 54.9156 1.356C55.317 1.356 55.667 1.38867 55.9656 1.454C56.2736 1.51933 56.563 1.63133 56.8336 1.79C56.4136 2.154 55.8956 2.70933 55.2796 3.456C54.6636 4.19333 54.015 5.08 53.3336 6.116C54.2856 6.13467 55.0836 6.144 55.7276 6.144C55.7183 5.22933 55.6436 4.58067 55.5036 4.198C55.8116 4.142 56.1196 4.114 56.4276 4.114C56.7356 4.114 57.0763 4.142 57.4496 4.198C57.3843 4.71133 57.3376 5.34133 57.3096 6.088C57.7576 6.04133 58.0843 5.976 58.2896 5.892C58.2896 6.15333 58.257 6.438 58.1916 6.746C58.1263 7.04467 58.0423 7.31067 57.9396 7.544L57.3096 7.46C57.3376 8.188 57.4076 8.70133 57.5196 9C57.221 9.056 56.9176 9.084 56.6096 9.084ZM64.0505 9.084C63.7705 9.084 63.4392 9.056 63.0565 9C63.1219 8.06667 63.1545 7.07267 63.1545 6.018C63.1545 5.50467 63.1359 5.11267 63.0985 4.842C63.0705 4.57133 63.0192 4.35667 62.9445 4.198C62.8792 4.03933 62.7672 3.876 62.6085 3.708C62.7859 3.53067 62.9772 3.40467 63.1825 3.33C63.3972 3.246 63.5885 3.204 63.7565 3.204C64.3912 3.204 64.7319 3.54467 64.7785 4.226C65.0119 3.92733 65.2592 3.68467 65.5205 3.498C65.7819 3.31133 66.0805 3.17133 66.4165 3.078C66.4819 3.274 66.5379 3.54933 66.5845 3.904C66.6405 4.24933 66.6685 4.57133 66.6685 4.87C66.5005 4.842 66.3372 4.828 66.1785 4.828C65.8985 4.828 65.6325 4.86533 65.3805 4.94C65.1285 5.00533 64.9185 5.094 64.7505 5.206C64.7319 5.84067 64.7225 6.40533 64.7225 6.9C64.7225 7.88 64.8159 8.58 65.0025 9C64.7412 9.056 64.4239 9.084 64.0505 9.084ZM69.7727 9.154C68.9514 9.154 68.3214 8.91133 67.8827 8.426C67.444 7.93133 67.2247 7.23133 67.2247 6.326C67.2247 5.71 67.3554 5.164 67.6167 4.688C67.878 4.20267 68.242 3.82467 68.7087 3.554C69.1847 3.28333 69.726 3.148 70.3327 3.148C71.126 3.148 71.728 3.4 72.1387 3.904C72.5494 4.408 72.7547 5.15467 72.7547 6.144C72.2414 6.26533 71.6347 6.37267 70.9347 6.466C70.244 6.55 69.5627 6.59667 68.8907 6.606C68.9654 7.01667 69.1194 7.32 69.3527 7.516C69.586 7.70267 69.9174 7.796 70.3467 7.796C71.1774 7.796 71.854 7.61867 72.3767 7.264L72.5447 7.908C72.246 8.28133 71.84 8.58467 71.3267 8.818C70.8227 9.042 70.3047 9.154 69.7727 9.154ZM68.8347 5.976C69.236 5.92933 69.6327 5.85933 70.0247 5.766C70.4167 5.67267 70.734 5.57 70.9767 5.458C70.958 5.038 70.8274 4.688 70.5847 4.408C70.342 4.11867 70.0387 3.974 69.6747 3.974C69.4227 4.13267 69.222 4.394 69.0727 4.758C68.9234 5.122 68.844 5.528 68.8347 5.976ZM76.1728 9.126C75.8928 9.126 75.6501 9.014 75.4448 8.79C75.2488 8.55667 75.0808 8.272 74.9408 7.936C74.8101 7.59067 74.6514 7.11 74.4648 6.494C74.2501 5.77533 74.0494 5.18733 73.8628 4.73C73.6761 4.26333 73.4428 3.85733 73.1628 3.512C73.6761 3.316 74.3434 3.218 75.1648 3.218C75.2674 3.79667 75.4774 4.59467 75.7948 5.612C76.1214 6.62 76.4108 7.36667 76.6628 7.852C77.0734 6.52667 77.3534 5.584 77.5028 5.024C77.6614 4.45467 77.7408 4.03933 77.7408 3.778C77.7408 3.61933 77.7128 3.484 77.6568 3.372C78.1048 3.26933 78.5994 3.218 79.1408 3.218C78.6088 4.506 78.0254 6.30733 77.3908 8.622L76.1728 9.126ZM81.0941 9.126C80.7488 9.126 80.5061 9.042 80.3661 8.874C80.2261 8.706 80.1561 8.40733 80.1561 7.978C80.1561 7.63267 80.1654 7.14267 80.1841 6.508C80.2028 5.91067 80.2121 5.472 80.2121 5.192C80.2121 4.81867 80.1888 4.46867 80.1421 4.142C80.0954 3.81533 80.0301 3.582 79.9461 3.442C80.2634 3.33933 80.5714 3.26933 80.8701 3.232C81.1688 3.18533 81.5001 3.162 81.8641 3.162C81.8174 3.43267 81.7754 3.85267 81.7381 4.422C81.7101 4.982 81.6961 5.612 81.6961 6.312C81.6961 6.82533 81.7101 7.21733 81.7381 7.488C81.7754 7.75867 81.8268 7.97333 81.8921 8.132C81.9668 8.29067 82.0834 8.454 82.2421 8.622C82.0648 8.79 81.8688 8.916 81.6541 9C81.4488 9.084 81.2621 9.126 81.0941 9.126ZM80.9541 2.462C80.6741 2.11667 80.3241 1.76667 79.9041 1.412C80.2214 1.02933 80.5714 0.679333 80.9541 0.361999C81.3088 0.782 81.6588 1.132 82.0041 1.412C81.6774 1.78533 81.3274 2.13533 80.9541 2.462ZM85.6594 9.154C84.8381 9.154 84.2081 8.91133 83.7694 8.426C83.3307 7.93133 83.1114 7.23133 83.1114 6.326C83.1114 5.71 83.2421 5.164 83.5034 4.688C83.7647 4.20267 84.1287 3.82467 84.5954 3.554C85.0714 3.28333 85.6127 3.148 86.2194 3.148C87.0127 3.148 87.6147 3.4 88.0254 3.904C88.4361 4.408 88.6414 5.15467 88.6414 6.144C88.1281 6.26533 87.5214 6.37267 86.8214 6.466C86.1307 6.55 85.4494 6.59667 84.7774 6.606C84.8521 7.01667 85.0061 7.32 85.2394 7.516C85.4727 7.70267 85.8041 7.796 86.2334 7.796C87.0641 7.796 87.7407 7.61867 88.2634 7.264L88.4314 7.908C88.1327 8.28133 87.7267 8.58467 87.2134 8.818C86.7094 9.042 86.1914 9.154 85.6594 9.154ZM84.7214 5.976C85.1227 5.92933 85.5194 5.85933 85.9114 5.766C86.3034 5.67267 86.6207 5.57 86.8634 5.458C86.8447 5.038 86.7141 4.688 86.4714 4.408C86.2287 4.11867 85.9254 3.974 85.5614 3.974C85.3094 4.13267 85.1087 4.394 84.9594 4.758C84.8101 5.122 84.7307 5.528 84.7214 5.976ZM91.9615 9.126C91.4202 9.126 91.0282 8.74333 90.7855 7.978L90.2815 6.382L89.9035 5.192C89.7822 4.81867 89.6422 4.478 89.4835 4.17C89.3342 3.862 89.1895 3.64267 89.0495 3.512C89.5442 3.316 90.2022 3.218 91.0235 3.218C91.0888 3.62867 91.2942 4.39867 91.6395 5.528C91.9942 6.648 92.2555 7.40867 92.4235 7.81C92.9742 6.09267 93.3102 4.982 93.4315 4.478C93.2448 4.03 93.0535 3.708 92.8575 3.512C93.3522 3.316 94.0055 3.218 94.8175 3.218C94.8828 3.61933 95.0602 4.296 95.3495 5.248C95.6388 6.19067 95.9142 7.012 96.1755 7.712C96.6048 6.37733 96.8942 5.444 97.0435 4.912C97.2022 4.37067 97.2815 3.97867 97.2815 3.736C97.2815 3.60533 97.2582 3.484 97.2115 3.372C97.6222 3.26933 98.1168 3.218 98.6955 3.218C98.1728 4.422 97.5568 6.242 96.8475 8.678L95.7695 9.126C95.2375 9.126 94.8408 8.74333 94.5795 7.978C94.2995 7.10067 94.0802 6.38667 93.9215 5.836C93.7068 6.48 93.4128 7.42733 93.0395 8.678L91.9615 9.126ZM101.513 9.154C100.551 9.154 99.7906 8.986 99.2306 8.65C99.2306 8.24867 99.3146 7.84733 99.4826 7.446C99.6692 7.67 99.9166 7.852 100.225 7.992C100.542 8.12267 100.892 8.188 101.275 8.188C102.012 8.188 102.381 8.00133 102.381 7.628C102.381 7.46933 102.297 7.33867 102.129 7.236C101.961 7.124 101.69 6.99333 101.317 6.844C100.906 6.68533 100.565 6.53133 100.295 6.382C100.033 6.23267 99.8046 6.02733 99.6086 5.766C99.4126 5.49533 99.3146 5.164 99.3146 4.772C99.3146 4.27733 99.5292 3.88533 99.9586 3.596C100.397 3.29733 100.971 3.148 101.681 3.148C102.521 3.148 103.249 3.26 103.865 3.484C103.865 3.68 103.818 3.946 103.725 4.282C103.631 4.618 103.529 4.87467 103.417 5.052C103.071 4.76267 102.731 4.534 102.395 4.366C102.059 4.198 101.769 4.114 101.527 4.114C101.377 4.142 101.251 4.20267 101.149 4.296C101.055 4.38 101.009 4.47333 101.009 4.576C101.009 4.75333 101.093 4.898 101.261 5.01C101.438 5.122 101.727 5.26667 102.129 5.444C102.521 5.612 102.847 5.77067 103.109 5.92C103.37 6.06933 103.594 6.26533 103.781 6.508C103.967 6.75067 104.061 7.04933 104.061 7.404C104.061 7.95467 103.837 8.384 103.389 8.692C102.95 9 102.325 9.154 101.513 9.154ZM110.957 9.154C110.416 9.154 109.935 9.03733 109.515 8.804C109.104 8.56133 108.782 8.22533 108.549 7.796C108.325 7.36667 108.213 6.872 108.213 6.312C108.213 5.696 108.348 5.15 108.619 4.674C108.899 4.18867 109.282 3.81533 109.767 3.554C110.262 3.28333 110.822 3.148 111.447 3.148C112.007 3.148 112.502 3.26933 112.931 3.512C113.36 3.74533 113.692 4.07667 113.925 4.506C114.158 4.93533 114.275 5.43 114.275 5.99C114.275 6.606 114.135 7.15667 113.855 7.642C113.575 8.118 113.183 8.49133 112.679 8.762C112.175 9.02333 111.601 9.154 110.957 9.154ZM111.209 8.384C111.676 8.384 112.04 8.22533 112.301 7.908C112.572 7.58133 112.707 7.13333 112.707 6.564C112.707 6.06933 112.586 5.64 112.343 5.276C112.11 4.90267 111.788 4.65533 111.377 4.534C110.892 4.534 110.504 4.702 110.215 5.038C109.926 5.36467 109.781 5.81267 109.781 6.382C109.781 6.98867 109.912 7.474 110.173 7.838C110.444 8.202 110.789 8.384 111.209 8.384ZM116.908 9.084C116.516 9.084 116.161 9.056 115.844 9C115.909 8.06667 115.942 7.07267 115.942 6.018C115.942 5.50467 115.923 5.11267 115.886 4.842C115.858 4.57133 115.806 4.35667 115.732 4.198C115.666 4.03933 115.554 3.876 115.396 3.708C115.582 3.53067 115.788 3.40467 116.012 3.33C116.236 3.246 116.436 3.204 116.614 3.204C117.155 3.204 117.463 3.47933 117.538 4.03C117.79 3.75 118.079 3.53533 118.406 3.386C118.732 3.22733 119.073 3.148 119.428 3.148C120.52 3.148 121.066 3.792 121.066 5.08L121.038 5.962L121.01 6.9C121.01 7.88 121.103 8.58 121.29 9C121.028 9.056 120.688 9.084 120.268 9.084C119.978 9.084 119.67 9.056 119.344 9C119.409 7.98267 119.442 6.886 119.442 5.71C119.442 5.33667 119.372 5.07067 119.232 4.912C119.092 4.744 118.868 4.66 118.56 4.66C118.158 4.66 117.822 4.75333 117.552 4.94L117.538 5.346C117.519 5.94333 117.51 6.46133 117.51 6.9C117.51 7.88 117.603 8.58 117.79 9C117.528 9.056 117.234 9.084 116.908 9.084Z" fill="#454545"/>
</svg>
