<svg width="94" height="54" viewBox="0 0 94 54" fill="none" xmlns="http://www.w3.org/2000/svg">
<path d="M57.0066 36.6162C57.0066 41.5397 57.0066 46.4603 57.0066 51.3838C56.9949 51.4188 56.9774 51.4567 56.9716 51.4916C56.6948 53.024 55.5353 54 53.9796 54C52.3248 54 50.673 54 49.0182 54C48.9483 54 48.8813 54 48.8114 54C48.8114 51.6169 48.8114 49.2629 48.8114 46.8944C49.8135 46.8944 50.807 46.8944 51.8208 46.8944C51.9519 46.1107 52.0801 45.3387 52.2112 44.5462C51.6256 44.5462 51.0692 44.5462 50.5098 44.5462C49.9446 44.5462 49.3824 44.5462 48.8026 44.5462C48.8026 44.4676 48.8026 44.4093 48.8026 44.3511C48.8026 43.6664 48.8026 42.9847 48.8026 42.3001C48.8055 41.5222 49.2921 41.0328 50.0699 41.0299C50.7458 41.0269 51.4246 41.0299 52.1005 41.0299C52.1704 41.0299 52.2374 41.0299 52.3074 41.0299C52.3074 40.2374 52.3074 39.4712 52.3074 38.6846C52.2403 38.6846 52.185 38.6846 52.1267 38.6846C51.2353 38.6846 50.3438 38.6817 49.4523 38.6846C47.7363 38.6905 46.4603 39.9694 46.4574 41.6912C46.4545 42.571 46.4574 43.4479 46.4574 44.3277C46.4574 44.3977 46.4574 44.4647 46.4574 44.5492C45.665 44.5492 44.8988 44.5492 44.1238 44.5492C44.1238 45.3328 44.1238 46.1049 44.1238 46.8973C44.9046 46.8973 45.6766 46.8973 46.4457 46.8973C46.4457 49.2746 46.4457 51.6285 46.4457 53.9942C46.405 53.9971 46.3758 54 46.3438 54C44.1821 54 42.0204 54 39.8587 53.9971C39.4625 53.9971 39.0808 53.9097 38.7283 53.7349C37.5921 53.1755 37.0066 52.2549 37.0036 50.9905C36.9978 46.3292 37.0007 41.6679 37.0007 37.0066C37.0007 36.9425 37.0007 36.8755 37.0036 36.8114C37.0852 35.6723 37.6213 34.8245 38.6409 34.3117C38.9468 34.1602 39.2964 34.102 39.6227 34C44.5462 34 49.4669 34 54.3904 34C54.4283 34.0117 54.4632 34.0291 54.5011 34.035C55.5382 34.2068 56.287 34.7662 56.7327 35.713C56.8638 35.9956 56.9162 36.3161 57.0066 36.6162ZM45.2717 52.8288C45.2717 51.2265 45.2717 49.6504 45.2717 48.0568C44.4909 48.0568 43.7247 48.0568 42.9527 48.0568C42.9527 46.4894 42.9527 44.9395 42.9527 43.3664C43.7363 43.3664 44.5055 43.3664 45.2833 43.3664C45.2833 42.7924 45.2833 42.2389 45.2833 41.6854C45.2833 41.2134 45.3445 40.7502 45.5018 40.3044C46.1165 38.5798 47.6169 37.5193 49.4494 37.5135C50.7312 37.5106 52.0131 37.5135 53.2979 37.5135C53.3532 37.5135 53.4115 37.5135 53.4727 37.5135C53.4727 39.0838 53.4727 40.6366 53.4727 42.2098C52.2986 42.2098 51.1391 42.2098 49.9796 42.2098C49.9796 42.606 49.9796 42.9818 49.9796 43.3751C51.1857 43.3751 52.3802 43.3751 53.5921 43.3751C53.3299 44.9454 53.0706 46.4953 52.8114 48.0655C51.8616 48.0655 50.9206 48.0655 49.9883 48.0655C49.9883 49.665 49.9883 51.244 49.9883 52.8259C51.3722 52.8259 52.7385 52.8463 54.1049 52.8201C55.1187 52.7997 55.8296 52.0306 55.8296 51.0051C55.8325 46.3379 55.8325 41.6679 55.8296 37.0007C55.8296 35.9345 55.0721 35.1741 54.0117 35.1741C49.3358 35.1712 44.6628 35.1712 39.9869 35.1741C38.9352 35.1741 38.1748 35.9345 38.1748 36.9862C38.1719 41.6621 38.169 46.335 38.1806 51.0109C38.1806 51.2819 38.2418 51.5761 38.3554 51.8208C38.6817 52.5142 39.2644 52.8288 40.0218 52.8318C41.4465 52.8347 42.874 52.8318 44.2986 52.8318C44.622 52.8288 44.9395 52.8288 45.2717 52.8288Z" fill="#F8F8F8"/>
<path d="M3.28906 18H1.96094V6.57812H8.32031V7.75H3.28906V11.9375H8.01562V13.1016H3.28906V18ZM17.4141 13.7031C17.4141 14.4062 17.3229 15.0339 17.1406 15.5859C16.9583 16.138 16.6953 16.6042 16.3516 16.9844C16.0078 17.3646 15.5911 17.6562 15.1016 17.8594C14.6172 18.0573 14.0677 18.1562 13.4531 18.1562C12.8802 18.1562 12.3542 18.0573 11.875 17.8594C11.401 17.6562 10.9896 17.3646 10.6406 16.9844C10.2969 16.6042 10.0286 16.138 9.83594 15.5859C9.64844 15.0339 9.55469 14.4062 9.55469 13.7031C9.55469 12.7656 9.71354 11.9688 10.0312 11.3125C10.349 10.651 10.8021 10.1484 11.3906 9.80469C11.9844 9.45573 12.6901 9.28125 13.5078 9.28125C14.2891 9.28125 14.9714 9.45573 15.5547 9.80469C16.1432 10.1536 16.599 10.6589 16.9219 11.3203C17.25 11.9766 17.4141 12.7708 17.4141 13.7031ZM10.8984 13.7031C10.8984 14.3906 10.9896 14.987 11.1719 15.4922C11.3542 15.9974 11.6354 16.388 12.0156 16.6641C12.3958 16.9401 12.8854 17.0781 13.4844 17.0781C14.0781 17.0781 14.5651 16.9401 14.9453 16.6641C15.3307 16.388 15.6146 15.9974 15.7969 15.4922C15.9792 14.987 16.0703 14.3906 16.0703 13.7031C16.0703 13.0208 15.9792 12.4323 15.7969 11.9375C15.6146 11.4375 15.3333 11.0521 14.9531 10.7812C14.5729 10.5104 14.0807 10.375 13.4766 10.375C12.5859 10.375 11.9323 10.6693 11.5156 11.2578C11.1042 11.8464 10.8984 12.6615 10.8984 13.7031ZM20.9609 18H19.6562V5.84375H20.9609V18ZM25.0078 18H23.7031V5.84375H25.0078V18ZM35.1328 13.7031C35.1328 14.4062 35.0417 15.0339 34.8594 15.5859C34.6771 16.138 34.4141 16.6042 34.0703 16.9844C33.7266 17.3646 33.3099 17.6562 32.8203 17.8594C32.3359 18.0573 31.7865 18.1562 31.1719 18.1562C30.599 18.1562 30.0729 18.0573 29.5938 17.8594C29.1198 17.6562 28.7083 17.3646 28.3594 16.9844C28.0156 16.6042 27.7474 16.138 27.5547 15.5859C27.3672 15.0339 27.2734 14.4062 27.2734 13.7031C27.2734 12.7656 27.4323 11.9688 27.75 11.3125C28.0677 10.651 28.5208 10.1484 29.1094 9.80469C29.7031 9.45573 30.4089 9.28125 31.2266 9.28125C32.0078 9.28125 32.6901 9.45573 33.2734 9.80469C33.862 10.1536 34.3177 10.6589 34.6406 11.3203C34.9688 11.9766 35.1328 12.7708 35.1328 13.7031ZM28.6172 13.7031C28.6172 14.3906 28.7083 14.987 28.8906 15.4922C29.0729 15.9974 29.3542 16.388 29.7344 16.6641C30.1146 16.9401 30.6042 17.0781 31.2031 17.0781C31.7969 17.0781 32.2839 16.9401 32.6641 16.6641C33.0495 16.388 33.3333 15.9974 33.5156 15.4922C33.6979 14.987 33.7891 14.3906 33.7891 13.7031C33.7891 13.0208 33.6979 12.4323 33.5156 11.9375C33.3333 11.4375 33.0521 11.0521 32.6719 10.7812C32.2917 10.5104 31.7995 10.375 31.1953 10.375C30.3047 10.375 29.651 10.6693 29.2344 11.2578C28.8229 11.8464 28.6172 12.6615 28.6172 13.7031ZM44.3438 17.9844L42.8203 13C42.7526 12.7865 42.6875 12.5781 42.625 12.375C42.5677 12.1667 42.513 11.9688 42.4609 11.7812C42.4141 11.5885 42.3698 11.4115 42.3281 11.25C42.2917 11.0833 42.2604 10.9401 42.2344 10.8203H42.1797C42.1589 10.9401 42.1302 11.0833 42.0938 11.25C42.0573 11.4115 42.013 11.5885 41.9609 11.7812C41.9141 11.974 41.862 12.1771 41.8047 12.3906C41.7474 12.599 41.6823 12.8099 41.6094 13.0234L40.0156 17.9844H38.5547L36.1953 9.42188H37.5391L38.7734 14.1484C38.8568 14.4609 38.9349 14.7708 39.0078 15.0781C39.0859 15.3802 39.151 15.6667 39.2031 15.9375C39.2604 16.2031 39.3021 16.4349 39.3281 16.6328H39.3906C39.4219 16.5026 39.4557 16.3464 39.4922 16.1641C39.5339 15.9818 39.5781 15.7891 39.625 15.5859C39.6771 15.3776 39.7318 15.1719 39.7891 14.9688C39.8464 14.7604 39.9036 14.5651 39.9609 14.3828L41.5391 9.42188H42.9375L44.4609 14.375C44.5391 14.625 44.6146 14.8854 44.6875 15.1562C44.7656 15.4271 44.8359 15.6901 44.8984 15.9453C44.9609 16.1953 45.0052 16.4193 45.0312 16.6172H45.0938C45.1146 16.4401 45.1536 16.2214 45.2109 15.9609C45.2682 15.7005 45.3333 15.4141 45.4062 15.1016C45.4844 14.7891 45.5651 14.4714 45.6484 14.1484L46.8984 9.42188H48.2188L45.8516 17.9844H44.3438ZM61.0078 9.4375V18H59.9453L59.7578 16.7969H59.6875C59.5104 17.0938 59.2812 17.3438 59 17.5469C58.7188 17.75 58.401 17.901 58.0469 18C57.6979 18.1042 57.3255 18.1562 56.9297 18.1562C56.2526 18.1562 55.6849 18.0469 55.2266 17.8281C54.7682 17.6094 54.4219 17.2708 54.1875 16.8125C53.9583 16.3542 53.8438 15.7656 53.8438 15.0469V9.4375H55.1562V14.9531C55.1562 15.6667 55.3177 16.2005 55.6406 16.5547C55.9635 16.9036 56.4557 17.0781 57.1172 17.0781C57.7526 17.0781 58.2578 16.9583 58.6328 16.7188C59.013 16.4792 59.2865 16.1276 59.4531 15.6641C59.6198 15.1953 59.7031 14.6224 59.7031 13.9453V9.4375H61.0078ZM69.2891 15.6562C69.2891 16.2031 69.151 16.6641 68.875 17.0391C68.6042 17.4089 68.2135 17.6875 67.7031 17.875C67.1979 18.0625 66.5938 18.1562 65.8906 18.1562C65.2917 18.1562 64.7734 18.1094 64.3359 18.0156C63.8984 17.9219 63.5156 17.7891 63.1875 17.6172V16.4219C63.5365 16.5938 63.9531 16.75 64.4375 16.8906C64.9219 17.0312 65.4167 17.1016 65.9219 17.1016C66.6615 17.1016 67.1979 16.9818 67.5312 16.7422C67.8646 16.5026 68.0312 16.1771 68.0312 15.7656C68.0312 15.5312 67.9635 15.3255 67.8281 15.1484C67.6979 14.9661 67.4766 14.7917 67.1641 14.625C66.8516 14.4531 66.4193 14.2656 65.8672 14.0625C65.3203 13.8542 64.8464 13.6484 64.4453 13.4453C64.0495 13.237 63.7422 12.9844 63.5234 12.6875C63.3099 12.3906 63.2031 12.0052 63.2031 11.5312C63.2031 10.8073 63.4948 10.2526 64.0781 9.86719C64.6667 9.47656 65.4375 9.28125 66.3906 9.28125C66.9062 9.28125 67.388 9.33333 67.8359 9.4375C68.2891 9.53646 68.7109 9.67188 69.1016 9.84375L68.6641 10.8828C68.3099 10.7318 67.9323 10.6042 67.5312 10.5C67.1302 10.3958 66.7214 10.3438 66.3047 10.3438C65.7057 10.3438 65.2448 10.4427 64.9219 10.6406C64.6042 10.8385 64.4453 11.1094 64.4453 11.4531C64.4453 11.7188 64.5182 11.9375 64.6641 12.1094C64.8151 12.2812 65.0547 12.4427 65.3828 12.5938C65.7109 12.7448 66.1432 12.9219 66.6797 13.125C67.2161 13.3229 67.6797 13.5286 68.0703 13.7422C68.4609 13.9505 68.7604 14.2057 68.9688 14.5078C69.1823 14.8047 69.2891 15.1875 69.2891 15.6562ZM82.9141 13.7031C82.9141 14.4062 82.8229 15.0339 82.6406 15.5859C82.4583 16.138 82.1953 16.6042 81.8516 16.9844C81.5078 17.3646 81.0911 17.6562 80.6016 17.8594C80.1172 18.0573 79.5677 18.1562 78.9531 18.1562C78.3802 18.1562 77.8542 18.0573 77.375 17.8594C76.901 17.6562 76.4896 17.3646 76.1406 16.9844C75.7969 16.6042 75.5286 16.138 75.3359 15.5859C75.1484 15.0339 75.0547 14.4062 75.0547 13.7031C75.0547 12.7656 75.2135 11.9688 75.5312 11.3125C75.849 10.651 76.3021 10.1484 76.8906 9.80469C77.4844 9.45573 78.1901 9.28125 79.0078 9.28125C79.7891 9.28125 80.4714 9.45573 81.0547 9.80469C81.6432 10.1536 82.099 10.6589 82.4219 11.3203C82.75 11.9766 82.9141 12.7708 82.9141 13.7031ZM76.3984 13.7031C76.3984 14.3906 76.4896 14.987 76.6719 15.4922C76.8542 15.9974 77.1354 16.388 77.5156 16.6641C77.8958 16.9401 78.3854 17.0781 78.9844 17.0781C79.5781 17.0781 80.0651 16.9401 80.4453 16.6641C80.8307 16.388 81.1146 15.9974 81.2969 15.4922C81.4792 14.987 81.5703 14.3906 81.5703 13.7031C81.5703 13.0208 81.4792 12.4323 81.2969 11.9375C81.1146 11.4375 80.8333 11.0521 80.4531 10.7812C80.0729 10.5104 79.5807 10.375 78.9766 10.375C78.0859 10.375 77.4323 10.6693 77.0156 11.2578C76.6042 11.8464 76.3984 12.6615 76.3984 13.7031ZM89.2109 9.28125C90.2266 9.28125 90.9948 9.53125 91.5156 10.0312C92.0365 10.526 92.2969 11.3229 92.2969 12.4219V18H91.0156V12.5078C91.0156 11.7943 90.8516 11.2604 90.5234 10.9062C90.2005 10.5521 89.7031 10.375 89.0312 10.375C88.0833 10.375 87.4167 10.6432 87.0312 11.1797C86.6458 11.7161 86.4531 12.4948 86.4531 13.5156V18H85.1562V9.4375H86.2031L86.3984 10.6719H86.4688C86.651 10.3698 86.8828 10.1172 87.1641 9.91406C87.4453 9.70573 87.7604 9.54948 88.1094 9.44531C88.4583 9.33594 88.8255 9.28125 89.2109 9.28125Z" fill="white"/>
</svg>
