<svg width="42" height="42" viewBox="0 0 42 42" fill="none" xmlns="http://www.w3.org/2000/svg">
<circle cx="21" cy="21" r="20" stroke="#FFF8F2" stroke-width="2"/>
<path d="M30 19C30 26 21 32 21 32C21 32 12 26 12 19C12 16.6131 12.9482 14.3239 14.636 12.636C16.3239 10.9482 18.6131 10 21 10C23.3869 10 25.6761 10.9482 27.364 12.636C29.0518 14.3239 30 16.6131 30 19Z" stroke="#FFF8F2" stroke-width="2" stroke-linecap="round" stroke-linejoin="round"/>
<path d="M26.2104 18.5095C26.2104 19.4555 26.2104 20.4014 26.2104 21.3473C26.2104 21.4896 26.1685 21.5734 26.043 21.6487C24.3855 22.603 22.728 23.5573 21.0705 24.52C20.9533 24.587 20.8696 24.587 20.7524 24.52C19.1033 23.5489 17.4458 22.5946 15.78 21.6403C15.6544 21.565 15.6125 21.4813 15.6125 21.3473C15.6125 19.4471 15.6209 17.5468 15.6125 15.6466C15.6125 15.5043 15.6544 15.4206 15.78 15.3536C17.4458 14.3993 19.1117 13.4366 20.7775 12.4823C20.8445 12.4405 20.9784 12.4405 21.0454 12.4823C22.7196 13.4366 24.3855 14.4077 26.0597 15.3704C26.1853 15.4457 26.202 15.5294 26.202 15.655C26.2104 16.6009 26.2104 17.5552 26.2104 18.5095ZM24.059 15.8643C24.0088 15.8224 23.9837 15.8057 23.9586 15.7889C22.9875 15.228 22.0165 14.6588 21.037 14.1063C20.9617 14.0645 20.8278 14.0812 20.7524 14.1231C19.8065 14.6588 18.8689 15.2113 17.9313 15.7471C17.8811 15.7722 17.8393 15.814 17.7723 15.8559C18.8019 16.4502 19.8065 17.0362 20.8194 17.6054C20.8696 17.6306 20.9617 17.6389 21.0119 17.6054C22.0165 17.0446 23.021 16.4586 24.059 15.8643ZM20.1832 22.5444C20.1999 22.4858 20.2083 22.4691 20.2083 22.444C20.2083 21.3139 20.2167 20.1754 20.1999 19.0453C20.1999 18.9699 20.1162 18.8611 20.0492 18.8193C19.1117 18.2668 18.1741 17.731 17.2282 17.1869C17.1779 17.1618 17.1277 17.145 17.044 17.1115C17.044 17.2287 17.044 17.3125 17.044 17.4045C17.044 18.3002 17.0859 19.1876 17.0273 20.0749C16.9938 20.5856 17.1696 20.8534 17.6132 21.0795C18.4838 21.5231 19.321 22.0421 20.1832 22.5444ZM24.7622 17.1115C24.712 17.1367 24.6701 17.145 24.645 17.1618C23.6739 17.7226 22.7113 18.2751 21.7486 18.8444C21.6816 18.8862 21.6314 19.0202 21.6314 19.1039C21.623 20.1754 21.623 21.2469 21.623 22.3184C21.623 22.3854 21.6314 22.4523 21.6398 22.5277C21.69 22.5026 21.7151 22.4942 21.7486 22.4774C22.7196 21.9166 23.6823 21.3641 24.645 20.8032C24.7203 20.7614 24.7789 20.6358 24.7789 20.5437C24.7873 19.4638 24.7873 18.384 24.7873 17.3041C24.7789 17.2539 24.7706 17.1953 24.7622 17.1115Z" fill="#FFF8F2"/>
</svg>
